<svg width="50" height="50" viewBox="0 0 50 50" fill="none" xmlns="http://www.w3.org/2000/svg">
<rect width="50" height="50" rx="5" fill="#FFA500"/>
<path d="M11.25 13.3943V16.097H13.9527L18.8176 26.3537L16.9932 29.6646C16.777 30.0429 16.6554 30.4889 16.6554 30.9619C16.6554 31.6787 16.9402 32.3661 17.447 32.873C17.9539 33.3798 18.6413 33.6646 19.3581 33.6646H35.5743V30.9619H19.9257C19.75 30.9619 19.5878 30.8132 19.5878 30.624L19.6284 30.4619L20.8446 28.2592H30.9122C31.9257 28.2592 32.8176 27.7051 33.277 26.8673L38.4932 17.3943L36.1419 16.097H36.1284L34.6419 18.7997L30.9122 25.5564H21.4257L21.25 25.1916L18.223 18.7997L16.9392 16.097L15.6689 13.3943H11.25ZM19.3581 35.0159C18.6413 35.0159 17.9539 35.3007 17.447 35.8075C16.9402 36.3144 16.6554 37.0018 16.6554 37.7186C16.6554 38.4354 16.9402 39.1229 17.447 39.6297C17.9539 40.1366 18.6413 40.4213 19.3581 40.4213C20.0749 40.4213 20.7624 40.1366 21.2692 39.6297C21.7761 39.1229 22.0608 38.4354 22.0608 37.7186C22.0608 37.0018 21.7761 36.3144 21.2692 35.8075C20.7624 35.3007 20.0749 35.0159 19.3581 35.0159ZM32.8716 35.0159C32.1548 35.0159 31.4674 35.3007 30.9605 35.8075C30.4537 36.3144 30.1689 37.0018 30.1689 37.7186C30.1689 38.4354 30.4537 39.1229 30.9605 39.6297C31.4674 40.1366 32.1548 40.4213 32.8716 40.4213C33.5884 40.4213 34.2759 40.1366 34.7827 39.6297C35.2896 39.1229 35.5743 38.4354 35.5743 37.7186C35.5743 37.0018 35.2896 36.3144 34.7827 35.8075C34.2759 35.3007 33.5884 35.0159 32.8716 35.0159Z" fill="black"/>
<path d="M22.8031 10.6885C24.2648 9.84456 25.6745 9.50694 27.0321 9.67562C28.3897 9.8443 29.5361 10.472 30.4712 11.5587L27.4873 13.2814C27.0484 12.978 26.5558 12.8228 26.0095 12.8158C25.4569 12.7978 24.8949 12.9537 24.3234 13.2837C23.4332 13.7977 22.8933 14.5124 22.7037 15.4277C22.5079 16.3322 22.705 17.2954 23.2951 18.3175C23.936 19.4275 24.708 20.1175 25.6111 20.3874C26.5253 20.6509 27.5044 20.4813 28.5485 19.8785C29.2189 19.4914 29.7022 18.9706 29.9984 18.316C30.2882 17.6504 30.3408 16.9167 30.1562 16.1147L26.5953 18.1706L25.4246 16.1429L31.3429 12.7259L32.9515 15.512C33.1251 16.3203 33.1382 17.1553 32.991 18.017C32.8437 18.8787 32.4956 19.7098 31.9466 20.5103C31.4087 21.3044 30.6561 21.9807 29.689 22.5391C28.513 23.2181 27.3426 23.5641 26.1779 23.5771C25.0067 23.5792 23.9192 23.2692 22.9153 22.6472C21.9224 22.0188 21.0929 21.1276 20.4266 19.9736C19.7603 18.8196 19.4033 17.6556 19.3556 16.4816C19.3189 15.3012 19.5919 14.213 20.1746 13.2172C20.7619 12.204 21.6381 11.3611 22.8031 10.6885Z" fill="#FBFBFB"/>
</svg>
